<svg width="18" height="19" viewBox="0 0 18 19" fill="none" xmlns="http://www.w3.org/2000/svg">
<path d="M0.5625 9.5C0.5625 4.8401 4.3401 1.0625 9 1.0625C13.6599 1.0625 17.4375 4.8401 17.4375 9.5C17.4375 14.1599 13.6599 17.9375 9 17.9375C4.3401 17.9375 0.5625 14.1599 0.5625 9.5Z" stroke="#333333" stroke-width="1.125"/>
<g clip-path="url(#clip0_157_5436)">
<path d="M8.32185 11.9338L8.1422 12.1135C7.98982 12.2659 7.80889 12.3868 7.60975 12.4692C7.41062 12.5516 7.19719 12.5939 6.98168 12.5937C6.76616 12.5936 6.5528 12.5509 6.35379 12.4682C6.15478 12.3855 5.97403 12.2644 5.82188 12.1117C5.51532 11.8041 5.34336 11.3874 5.34375 10.9531C5.34415 10.5188 5.51687 10.1024 5.82399 9.79529L7.04532 8.57396C7.19752 8.42172 7.37822 8.30095 7.5771 8.21855C7.77598 8.13616 7.98915 8.09375 8.20442 8.09375C8.4197 8.09375 8.63286 8.13616 8.83174 8.21855C9.03062 8.30095 9.21133 8.42172 9.36353 8.57396C9.58008 8.78956 9.73163 9.06172 9.80087 9.35935" stroke="#333333" stroke-width="0.84375" stroke-linecap="round" stroke-linejoin="round"/>
<path d="M9.67818 7.06611L9.85783 6.88646C10.01 6.73422 10.1907 6.61345 10.3896 6.53105C10.5885 6.44866 10.8017 6.40625 11.0169 6.40625C11.2322 6.40625 11.4454 6.44866 11.6443 6.53105C11.8431 6.61345 12.0238 6.73422 12.176 6.88646C12.3283 7.03866 12.449 7.21936 12.5314 7.41824C12.6138 7.61712 12.6562 7.83029 12.6562 8.04556C12.6562 8.26084 12.6138 8.474 12.5314 8.67288C12.449 8.87176 12.3283 9.05247 12.176 9.20466L11.3182 10.0625L10.9547 10.426C10.8023 10.5784 10.6214 10.6993 10.4223 10.7817C10.2231 10.8641 10.0097 10.9064 9.79418 10.9062C9.57867 10.9061 9.36531 10.8634 9.1663 10.7807C8.96729 10.698 8.78654 10.5769 8.63439 10.4242C8.41907 10.2087 8.26832 9.93729 8.19916 9.6406" stroke="#333333" stroke-width="0.84375" stroke-linecap="round" stroke-linejoin="round"/>
</g>
<defs>
<clipPath id="clip0_157_5436">
<rect width="9" height="9" fill="white" transform="translate(4.5 5)"/>
</clipPath>
</defs>
</svg>
