<svg width="24" height="24" viewBox="0 0 24 24" fill="none" xmlns="http://www.w3.org/2000/svg">
<g clip-path="url(#clip0_292_815)">
<path d="M21.3572 6.25875L21.3497 6.26719L15 13.0472V18.2494C15.0004 18.4968 14.9395 18.7405 14.8229 18.9587C14.7063 19.1769 14.5375 19.3628 14.3316 19.5L11.3316 21.5006C11.1055 21.6512 10.8428 21.7376 10.5714 21.7505C10.3001 21.7635 10.0303 21.7025 9.79097 21.5741C9.5516 21.4457 9.35158 21.2547 9.21227 21.0215C9.07296 20.7883 8.9996 20.5216 9 20.25V13.0472L2.65031 6.26719L2.64281 6.25875C2.44757 6.04389 2.31888 5.77699 2.27235 5.49043C2.22582 5.20387 2.26344 4.90996 2.38066 4.64436C2.49787 4.37876 2.68965 4.15288 2.93271 3.99413C3.17578 3.83538 3.45969 3.75057 3.75 3.75H20.25C20.5406 3.75003 20.8248 3.83444 21.0683 3.99298C21.3118 4.15152 21.504 4.37737 21.6216 4.64308C21.7391 4.90878 21.777 5.20292 21.7306 5.48973C21.6841 5.77655 21.5554 6.04371 21.36 6.25875H21.3572Z" fill="black"/>
</g>
<defs>
<clipPath id="clip0_292_815">
<rect width="24" height="24" fill="white"/>
</clipPath>
</defs>
</svg>
