<svg width="24" height="24" viewBox="0 0 24 24" fill="none" xmlns="http://www.w3.org/2000/svg">
<g clip-path="url(#clip0_292_812)">
<path d="M3 7.49997C3 7.30106 3.07902 7.11029 3.21967 6.96964C3.36032 6.82899 3.55109 6.74997 3.75 6.74997H7.23469C7.39635 6.20845 7.72845 5.73355 8.18163 5.3959C8.63481 5.05824 9.18486 4.87585 9.75 4.87585C10.3151 4.87585 10.8652 5.05824 11.3184 5.3959C11.7715 5.73355 12.1037 6.20845 12.2653 6.74997H20.25C20.4489 6.74997 20.6397 6.82899 20.7803 6.96964C20.921 7.11029 21 7.30106 21 7.49997C21 7.69888 20.921 7.88965 20.7803 8.0303C20.6397 8.17095 20.4489 8.24997 20.25 8.24997H12.2653C12.1037 8.79149 11.7715 9.26639 11.3184 9.60404C10.8652 9.9417 10.3151 10.1241 9.75 10.1241C9.18486 10.1241 8.63481 9.9417 8.18163 9.60404C7.72845 9.26639 7.39635 8.79149 7.23469 8.24997H3.75C3.55109 8.24997 3.36032 8.17095 3.21967 8.0303C3.07902 7.88965 3 7.69888 3 7.49997ZM20.25 15.75H18.2653C18.1037 15.2084 17.7715 14.7336 17.3184 14.3959C16.8652 14.0582 16.3151 13.8759 15.75 13.8759C15.1849 13.8759 14.6348 14.0582 14.1816 14.3959C13.7285 14.7336 13.3963 15.2084 13.2347 15.75H3.75C3.55109 15.75 3.36032 15.829 3.21967 15.9696C3.07902 16.1103 3 16.3011 3 16.5C3 16.6989 3.07902 16.8896 3.21967 17.0303C3.36032 17.171 3.55109 17.25 3.75 17.25H13.2347C13.3963 17.7915 13.7285 18.2664 14.1816 18.604C14.6348 18.9417 15.1849 19.1241 15.75 19.1241C16.3151 19.1241 16.8652 18.9417 17.3184 18.604C17.7715 18.2664 18.1037 17.7915 18.2653 17.25H20.25C20.4489 17.25 20.6397 17.171 20.7803 17.0303C20.921 16.8896 21 16.6989 21 16.5C21 16.3011 20.921 16.1103 20.7803 15.9696C20.6397 15.829 20.4489 15.75 20.25 15.75Z" fill="black"/>
</g>
<defs>
<clipPath id="clip0_292_812">
<rect width="24" height="24" fill="white"/>
</clipPath>
</defs>
</svg>
