<svg width="150" height="23" viewBox="0 0 150 23" fill="none" xmlns="http://www.w3.org/2000/svg">
<path fill-rule="evenodd" clip-rule="evenodd" d="M7.75329 0.239014L10.9247 3.41042L6.69759 15.3887L24.1694 9.05661L22.2816 14.2814L0 22.0863L7.75329 0.239014Z" fill="#48454C"/>
<path fill-rule="evenodd" clip-rule="evenodd" d="M9.96143 8.81355L32 1.15271L24.2467 23L21.0753 19.8264L25.3025 7.84815L8.10803 13.9674L9.96143 8.81355Z" fill="#48454C"/>
<path d="M50.949 16.4421C50.6962 17.0009 50.3237 17.4665 49.8714 17.839C49.4058 18.2115 48.8603 18.5042 48.2217 18.7037C47.5831 18.9033 46.8647 18.9964 46.0931 18.9964C45.3215 18.9964 43.9246 18.8102 42.8736 18.4377C41.8226 18.0652 40.8647 17.4798 40 16.7082L41.8625 14.4732C42.5144 15.0053 43.1929 15.431 43.8847 15.7503C44.5765 16.0696 45.3348 16.2159 46.1596 16.2159C46.9845 16.2159 47.3304 16.0962 47.6896 15.8567C48.0488 15.6173 48.235 15.2847 48.235 14.859V14.8191C48.235 14.6195 48.1951 14.4332 48.1153 14.2736C48.0355 14.114 47.8891 13.9676 47.6896 13.8346C47.4767 13.7015 47.184 13.5552 46.7982 13.4222C46.4257 13.2891 45.9335 13.1428 45.3215 12.9964C44.5898 12.8235 43.9379 12.6239 43.3392 12.3978C42.7539 12.1849 42.2483 11.9055 41.8359 11.5862C41.4235 11.2669 41.1042 10.8678 40.878 10.3889C40.6519 9.90996 40.5322 9.31129 40.5322 8.60619V8.56628C40.5322 7.91439 40.6519 7.31572 40.9047 6.79688C41.1441 6.26472 41.49 5.8124 41.929 5.42659C42.3681 5.04078 42.9002 4.7481 43.5122 4.54854C44.1242 4.34898 44.8027 4.24255 45.5344 4.24255C46.5854 4.24255 47.5565 4.4022 48.4346 4.70819C49.3126 5.02748 50.1242 5.4798 50.8692 6.06517L49.2328 8.44655C48.5942 8.00752 47.9557 7.66162 47.3437 7.40885C46.7317 7.15608 46.1064 7.02304 45.4945 7.02304C44.8825 7.02304 44.4169 7.14278 44.1109 7.38224C43.8049 7.62171 43.6452 7.91439 43.6452 8.27359V8.31351C43.6452 8.55298 43.6851 8.75253 43.7783 8.92548C43.8714 9.09843 44.031 9.24477 44.2572 9.39111C44.4967 9.52415 44.816 9.65719 45.2151 9.77692C45.6142 9.89666 46.133 10.043 46.745 10.2026C47.4767 10.3889 48.1153 10.6151 48.6874 10.8545C49.2594 11.094 49.7384 11.3867 50.1242 11.7193C50.51 12.0519 50.816 12.451 51.0155 12.9033C51.2151 13.3556 51.3082 13.9011 51.3082 14.5264V14.5663C51.3082 15.2847 51.1752 15.91 50.9224 16.4687L50.949 16.4421Z" fill="#FBAE17"/>
<path d="M64.3925 18.8036L57.4346 9.66393V18.8036H54.3082V4.43555H57.2218L63.9535 13.2826V4.43555H67.0798V18.8036H64.3925Z" fill="#FBAE17"/>
<path d="M70.0798 18.8036V4.43555H73.2461V18.8036H70.0798Z" fill="#FBAE17"/>
<path d="M87.1818 11.6329C86.8758 12.2582 86.4634 12.7903 85.9445 13.216C85.4124 13.6418 84.8004 13.961 84.0953 14.1739C83.3902 14.3868 82.6319 14.4932 81.8204 14.4932H79.4124V18.8036H76.2461V4.43555H82.1131C82.9778 4.43555 83.7494 4.55528 84.4279 4.79475C85.1064 5.03422 85.6785 5.36681 86.1574 5.80583C86.623 6.24486 86.9955 6.76371 87.2483 7.37568C87.5011 7.98765 87.6341 8.65284 87.6341 9.39785V9.43777C87.6341 10.2759 87.4878 11.0076 87.1818 11.6329ZM84.4279 9.45107C84.4279 8.74597 84.2017 8.20051 83.7361 7.82801C83.2838 7.4555 82.6452 7.26925 81.8603 7.26925H79.4124V11.6595H81.9135C82.7117 11.6595 83.3237 11.4466 83.7627 11.0342C84.2017 10.6218 84.4146 10.103 84.4146 9.49098V9.45107H84.4279Z" fill="#FBAE17"/>
<path d="M90.6342 18.7969V4.42883H91.6985V17.839H100.133V18.8102H90.6342V18.7969Z" fill="#48454C"/>
<path d="M117.075 14.4399C116.73 15.3313 116.237 16.1295 115.612 16.808C114.987 17.4865 114.215 18.032 113.324 18.4444C112.432 18.8435 111.435 19.0564 110.357 19.0564C109.279 19.0564 108.268 18.8568 107.39 18.4444C106.512 18.0453 105.754 17.4998 105.115 16.8213C104.49 16.1428 103.998 15.3579 103.652 14.4666C103.306 13.5752 103.133 12.6439 103.133 11.6595V11.6195C103.133 10.6351 103.306 9.6905 103.652 8.79915C103.998 7.9078 104.49 7.10957 105.115 6.43108C105.741 5.75258 106.499 5.20713 107.39 4.79471C108.282 4.3956 109.266 4.18274 110.37 4.18274C111.475 4.18274 112.432 4.3823 113.324 4.79471C114.215 5.19383 114.973 5.73928 115.599 6.41777C116.224 7.09626 116.716 7.88119 117.062 8.77254C117.408 9.66389 117.581 10.5952 117.581 11.5796C117.594 11.5929 117.594 11.6062 117.581 11.6195C117.581 12.604 117.408 13.5486 117.062 14.4399H117.075ZM116.49 11.6195C116.49 10.7282 116.33 9.89006 116.024 9.10513C115.718 8.32021 115.293 7.62842 114.747 7.05635C114.202 6.47099 113.563 6.01866 112.805 5.67276C112.047 5.32687 111.235 5.15391 110.344 5.15391C109.452 5.15391 108.641 5.32686 107.896 5.65946C107.151 5.99205 106.512 6.45768 105.967 7.02975C105.421 7.61511 105.009 8.2936 104.703 9.07853C104.397 9.86345 104.251 10.6883 104.251 11.5796V11.6195C104.251 12.5109 104.41 13.349 104.716 14.134C105.022 14.9189 105.448 15.6107 105.993 16.1827C106.539 16.7681 107.177 17.2204 107.936 17.5663C108.694 17.9122 109.506 18.0852 110.397 18.0852C111.288 18.0852 112.1 17.9122 112.845 17.5796C113.59 17.247 114.228 16.7814 114.774 16.2093C115.319 15.624 115.732 14.9455 116.038 14.1606C116.344 13.3756 116.49 12.5508 116.49 11.6595V11.6195Z" fill="#48454C"/>
<path d="M133.815 18.8568L131.992 14.8391H123.518L121.695 18.8568H120.591L127.283 4.38232H128.307L134.999 18.8568H133.828H133.815ZM127.748 5.55305L123.957 13.8679H131.527L127.748 5.55305Z" fill="#48454C"/>
<path d="M149.147 18.8036L139.023 6.032V18.8036H137.999V4.43555H139.01L148.921 16.9411V4.43555H149.946V18.8036H149.147Z" fill="#48454C"/>
</svg>
